<?xml version="1.0" encoding="utf-8"?>
<!-- Generator: Adobe Illustrator 16.0.0, SVG Export Plug-In . SVG Version: 6.00 Build 0)  -->
<!DOCTYPE svg PUBLIC "-//W3C//DTD SVG 1.1//EN" "http://www.w3.org/Graphics/SVG/1.1/DTD/svg11.dtd">
<svg version="1.1" id="Layer_1" xmlns="http://www.w3.org/2000/svg" xmlns:xlink="http://www.w3.org/1999/xlink" x="0px" y="0px"
	 width="46.135px" height="49.724px" viewBox="0.936 0 46.135 49.724" enable-background="new 0.936 0 46.135 49.724"
	 xml:space="preserve">
<g>
	<path fill="#28384C" d="M19.38,47.999L5.874,40.21c-2.285-1.315-3.705-3.772-3.705-6.412V18.231c0-2.639,1.419-5.097,3.705-6.413
		L19.38,4.03c2.281-1.315,5.114-1.315,7.396,0l13.506,7.789c2.286,1.316,3.705,3.774,3.705,6.413v15.566
		c0,2.639-1.419,5.096-3.705,6.412l-13.505,7.789C24.494,49.315,21.661,49.317,19.38,47.999z M21.173,7.139L7.668,14.928
		c-1.177,0.68-1.908,1.945-1.908,3.304v15.566c0,1.357,0.731,2.623,1.908,3.304l13.505,7.788c1.176,0.678,2.636,0.678,3.811,0
		l13.505-7.788c1.178-0.681,1.909-1.944,1.909-3.304V18.231c0-1.358-0.731-2.625-1.909-3.304L24.983,7.139
		C23.808,6.462,22.348,6.462,21.173,7.139z M14.707,33.025l6.666-5.642c0.849-0.717,0.846-2.023,0-2.739l-6.666-5.642
		c-0.756-0.64-1.889-0.546-2.53,0.211c-0.64,0.756-0.546,1.89,0.212,2.53l5.046,4.271l-5.046,4.271
		c-0.758,0.64-0.852,1.771-0.212,2.528C12.819,33.573,13.952,33.665,14.707,33.025z M34.403,31.655c0-0.99-0.803-1.795-1.795-1.795
		h-8.076c-0.991,0-1.794,0.805-1.794,1.795c0,0.991,0.803,1.795,1.794,1.795h8.076C33.599,33.45,34.403,32.647,34.403,31.655z"/>
	
		<linearGradient id="SVGID_1_" gradientUnits="userSpaceOnUse" x1="556.0752" y1="589.3916" x2="597.8916" y2="589.3916" gradientTransform="matrix(1 0 0 1 -552 -565.0645)">
		<stop  offset="0" style="stop-color:#FFFFFF"/>
		<stop  offset="1" style="stop-color:#FFBC00"/>
	</linearGradient>
	<path fill="url(#SVGID_1_)" d="M21.286,46.312L7.78,38.521c-2.285-1.315-3.705-3.772-3.705-6.412V16.543
		c0-2.639,1.419-5.097,3.705-6.413l13.506-7.789c2.281-1.315,5.114-1.315,7.396,0l13.505,7.789c2.287,1.316,3.705,3.774,3.705,6.413
		v15.566c0,2.64-1.418,5.097-3.705,6.412l-13.504,7.79C26.4,47.628,23.567,47.63,21.286,46.312z M23.079,5.451L9.574,13.24
		c-1.177,0.68-1.908,1.945-1.908,3.304v15.566c0,1.356,0.731,2.624,1.908,3.304l13.505,7.789c1.176,0.678,2.636,0.678,3.811,0
		l13.504-7.789c1.178-0.68,1.91-1.944,1.91-3.304V16.543c0-1.358-0.732-2.625-1.91-3.304L26.889,5.451
		C25.715,4.774,24.255,4.774,23.079,5.451z M16.613,31.337l6.666-5.641c0.849-0.718,0.846-2.024,0-2.74l-6.666-5.642
		c-0.756-0.64-1.889-0.546-2.53,0.211c-0.64,0.756-0.546,1.89,0.212,2.53l5.046,4.271l-5.046,4.271
		c-0.758,0.64-0.852,1.771-0.212,2.528C14.725,31.886,15.858,31.978,16.613,31.337z M36.31,29.968c0-0.991-0.803-1.795-1.795-1.795
		h-8.076c-0.991,0-1.794,0.804-1.794,1.795c0,0.99,0.803,1.794,1.794,1.794h8.076C35.505,31.762,36.31,30.96,36.31,29.968z"/>
</g>
</svg>
